<?xml version="1.0" encoding="UTF-8" standalone="no"?>
<!DOCTYPE svg PUBLIC "-//W3C//DTD SVG 1.1//EN" "http://www.w3.org/Graphics/SVG/1.1/DTD/svg11.dtd">
<!-- Created with Vectornator (http://vectornator.io/) -->
<svg height="512.0000000000001px" stroke-miterlimit="10" style="fill-rule:nonzero;clip-rule:evenodd;stroke-linecap:round;stroke-linejoin:round;" version="1.1" viewBox="0 0 512 512" width="512.0px" xml:space="preserve" xmlns="http://www.w3.org/2000/svg" xmlns:xlink="http://www.w3.org/1999/xlink">
<defs>
<path d="M191.542 95.911C191.542 76.0312 220.403 59.9155 256.004 59.9155C291.605 59.9155 320.466 76.0312 320.466 95.911C320.466 115.791 291.605 131.906 256.004 131.906C220.403 131.906 191.542 115.791 191.542 95.911Z" id="Fill"/>
<filter color-interpolation-filters="sRGB" filterUnits="userSpaceOnUse" height="207.707" id="Filter" width="207.708" x="147.754" y="91.6943">
<feDropShadow dx="-4.39618" dy="8.58453" flood-color="#ffffff" flood-opacity="1" in="SourceGraphic" result="Shadow" stdDeviation="33.8168"/>
</filter>
</defs>
<clipPath id="ArtboardFrame">
<rect height="512" width="512" x="0" y="0"/>
</clipPath>
<g clip-path="url(#ArtboardFrame)" id="Слой-1">
<path d="M4.51496 264.225C4.51496 125.333 117.109 12.7398 256 12.7398C394.891 12.7398 507.485 125.333 507.485 264.225C507.485 403.116 394.891 515.71 256 515.71C117.109 515.71 4.51496 403.116 4.51496 264.225Z" fill="#a16d6d" fill-rule="nonzero" opacity="1" stroke="none"/>
<path d="M191.534 90.3702L191.534 391.617C191.534 425.012 218.607 452.085 252.002 452.085L259.998 452.085C293.393 452.085 320.466 425.012 320.466 391.617L320.466 90.3702C320.466 110.691 291.601 127.207 256 127.207C220.399 127.207 191.534 110.692 191.534 90.3702Z" fill="#fefcf0" fill-rule="nonzero" opacity="1" stroke="none"/>
<path d="M229.768 95.911C229.768 87.3404 241.514 80.3926 256.004 80.3926C270.494 80.3926 282.24 87.3404 282.24 95.911C282.24 104.482 270.494 111.429 256.004 111.429C241.514 111.429 229.768 104.482 229.768 95.911Z" fill="none" opacity="1" stroke="#fefcf0" stroke-linecap="butt" stroke-linejoin="round" stroke-width="5.28048"/>
<g opacity="1">
<mask height="71.991" id="StrokeMask" maskUnits="userSpaceOnUse" width="128.924" x="191.542" y="59.9155">
<rect fill="#000000" height="71.991" stroke="none" width="128.924" x="191.542" y="59.9155"/>
<use fill="#ffffff" fill-rule="evenodd" stroke="none" xlink:href="#Fill"/>
</mask>
<use fill="none" mask="url(#StrokeMask)" stroke="#fefcf0" stroke-linecap="butt" stroke-linejoin="round" stroke-width="10.561" xlink:href="#Fill"/>
</g>
<path d="M236.692 186.963C236.692 176.298 245.338 167.652 256.004 167.652C266.67 167.652 275.316 176.298 275.316 186.963C275.316 197.629 266.67 206.275 256.004 206.275C245.338 206.275 236.692 197.629 236.692 186.963Z" fill="#ecb5a8" fill-rule="nonzero" filter="url(#Filter)" stroke="none"/>
<path d="M251.604 221.697C251.604 219.501 253.574 217.72 256.004 217.72C258.434 217.72 260.404 219.501 260.404 221.697C260.404 223.893 258.434 225.673 256.004 225.673C253.574 225.673 251.604 223.893 251.604 221.697Z" fill="#ecb5a8" fill-rule="nonzero" opacity="1" stroke="none"/>
<path d="M71.6457 256L176.794 256" fill="none" opacity="1" stroke="#fdfbf0" stroke-linecap="round" stroke-linejoin="round" stroke-width="9.19267"/>
<path d="M335.071 256L440.219 256" fill="none" opacity="1" stroke="#fdfbf0" stroke-linecap="round" stroke-linejoin="round" stroke-width="9.19267"/>
<path d="M115.5 166.86L176.794 206.275" fill="none" opacity="1" stroke="#fdfbf0" stroke-linecap="round" stroke-linejoin="round" stroke-width="9.19267"/>
<path d="M396.365 166.86L335.071 206.275" fill="none" opacity="1" stroke="#fdfbf0" stroke-linecap="round" stroke-linejoin="round" stroke-width="9.19267"/>
<path d="M386.895 218.211L335.071 229.359" fill="none" opacity="1" stroke="#fdfbf0" stroke-linecap="round" stroke-linejoin="round" stroke-width="9.19267"/>
<path d="M172.059 229.359L120.235 218.211" fill="none" opacity="1" stroke="#fdfbf0" stroke-linecap="round" stroke-linejoin="round" stroke-width="9.19267"/>
<path d="M335.071 282.676L386.895 293.824" fill="none" opacity="1" stroke="#fdfbf0" stroke-linecap="round" stroke-linejoin="round" stroke-width="9.19267"/>
<path d="M172.059 282.676L120.235 293.824" fill="none" opacity="1" stroke="#fdfbf0" stroke-linecap="round" stroke-linejoin="round" stroke-width="9.19267"/>
<path d="M176.794 306.608L115.5 346.023" fill="none" opacity="1" stroke="#fdfbf0" stroke-linecap="round" stroke-linejoin="round" stroke-width="9.19267"/>
<path d="M335.071 306.608L396.365 346.023" fill="none" opacity="1" stroke="#fdfbf0" stroke-linecap="round" stroke-linejoin="round" stroke-width="9.19267"/>
<path d="M88.5368 155.937C88.5368 151.186 92.3882 147.335 97.139 147.335C101.89 147.335 105.741 151.186 105.741 155.937C105.741 160.688 101.89 164.539 97.139 164.539C92.3882 164.539 88.5368 160.688 88.5368 155.937Z" fill="#fdfbf0" fill-rule="nonzero" opacity="1" stroke="none"/>
<path d="M40.8696 256C40.8696 251.249 44.7209 247.398 49.4718 247.398C54.2227 247.398 58.074 251.249 58.074 256C58.074 260.751 54.2227 264.602 49.4718 264.602C44.7209 264.602 40.8696 260.751 40.8696 256Z" fill="#fdfbf0" fill-rule="nonzero" opacity="1" stroke="none"/>
<path d="M453.402 256C453.402 251.249 457.253 247.398 462.004 247.398C466.755 247.398 470.606 251.249 470.606 256C470.606 260.751 466.755 264.602 462.004 264.602C457.253 264.602 453.402 260.751 453.402 256Z" fill="#fdfbf0" fill-rule="nonzero" opacity="1" stroke="none"/>
<path d="M405.947 155.937C405.947 151.186 409.798 147.335 414.549 147.335C419.3 147.335 423.151 151.186 423.151 155.937C423.151 160.688 419.3 164.539 414.549 164.539C409.798 164.539 405.947 160.688 405.947 155.937Z" fill="#fdfbf0" fill-rule="nonzero" opacity="1" stroke="none"/>
<path d="M405.947 354.626C405.947 349.875 409.798 346.023 414.549 346.023C419.3 346.023 423.151 349.875 423.151 354.626C423.151 359.376 419.3 363.228 414.549 363.228C409.798 363.228 405.947 359.376 405.947 354.626Z" fill="#fdfbf0" fill-rule="nonzero" opacity="1" stroke="none"/>
<path d="M88.5368 354.626C88.5368 349.875 92.3882 346.023 97.139 346.023C101.89 346.023 105.741 349.875 105.741 354.626C105.741 359.376 101.89 363.228 97.139 363.228C92.3882 363.228 88.5368 359.376 88.5368 354.626Z" fill="#fdfbf0" fill-rule="nonzero" opacity="1" stroke="none"/>
</g>
</svg>
